<svg xmlns="http://www.w3.org/2000/svg" width="104" height="104" viewBox="0 0 104 104">
  <g id="Group_86" data-name="Group 86" transform="translate(-88 -112)">
    <g id="layer2" transform="translate(49 73)">
      <g id="g1481" transform="translate(39 39)">
        <g id="g1473" transform="translate(0)">
          <path id="rect1325" d="M52.916,383.641v48h48v-48Zm26.339,5.618a21.2,21.2,0,0,1,14.535,6.086l-5.306,6.287a13.113,13.113,0,0,0-4.2-3.42,10.4,10.4,0,0,0-4.878-1.283,9.8,9.8,0,0,0-8.726,5.13,10.918,10.918,0,0,0-1.308,5.331A11.166,11.166,0,0,0,70.68,412.8a9.986,9.986,0,0,0,3.6,3.822A9.808,9.808,0,0,0,79.406,418a11.154,11.154,0,0,0,4.7-1.132,14.524,14.524,0,0,0,4.376-3.093l5.356,5.658a22.84,22.84,0,0,1-6.94,4.8,19.246,19.246,0,0,1-7.947,1.785,19.521,19.521,0,0,1-9.681-2.414,17.823,17.823,0,0,1-6.815-6.664,18.5,18.5,0,0,1-2.465-9.455,17.469,17.469,0,0,1,2.515-9.279,18.1,18.1,0,0,1,6.94-6.538A20.05,20.05,0,0,1,79.255,389.259Z" transform="translate(-52.916 -383.641)" fill="#3ca0ca"/>
          <path id="rect1327" d="M163.158,383.641v48h48v-48Zm25.119,5.618a27.349,27.349,0,0,1,7.619,1.081,24.129,24.129,0,0,1,6.614,2.942l-3.47,7.142a30.1,30.1,0,0,0-6.085-2.691,18.021,18.021,0,0,0-5.432-1.056,5.39,5.39,0,0,0-2.892.679,2.123,2.123,0,0,0-1.081,1.936,2.844,2.844,0,0,0,1.66,2.615,28.588,28.588,0,0,0,5.281,1.936,47.515,47.515,0,0,1,6.186,2.163,11.289,11.289,0,0,1,4.174,3.244,8.846,8.846,0,0,1,1.76,5.759,9.645,9.645,0,0,1-1.911,6.01,11.6,11.6,0,0,1-5.18,3.747,20.321,20.321,0,0,1-7.343,1.257,26.586,26.586,0,0,1-8.852-1.534,25.2,25.2,0,0,1-7.619-4.225l3.546-7.066a23.639,23.639,0,0,0,6.438,3.9,17.876,17.876,0,0,0,6.588,1.509,6.433,6.433,0,0,0,3.445-.779,2.63,2.63,0,0,0,1.257-2.364,2.871,2.871,0,0,0-1.735-2.665,26.916,26.916,0,0,0-5.382-1.911,50.318,50.318,0,0,1-6.111-2.062,10.856,10.856,0,0,1-4.124-3.143,8.561,8.561,0,0,1-1.71-5.557,9.537,9.537,0,0,1,1.76-5.733,11.413,11.413,0,0,1,5.054-3.772,19.541,19.541,0,0,1,7.544-1.358Z" transform="translate(-107.157 -383.641)" fill="#c25790"/>
          <path id="rect1329" d="M273.4,383.641v48h48v-48Zm26.339,5.618a21.2,21.2,0,0,1,14.535,6.086l-5.306,6.287a13.112,13.112,0,0,0-4.2-3.42,10.4,10.4,0,0,0-4.879-1.283,9.8,9.8,0,0,0-8.726,5.13,10.918,10.918,0,0,0-1.308,5.331,11.167,11.167,0,0,0,1.308,5.407,9.986,9.986,0,0,0,3.6,3.822,9.808,9.808,0,0,0,5.13,1.383,11.154,11.154,0,0,0,4.7-1.132,14.522,14.522,0,0,0,4.375-3.093l5.356,5.658a22.84,22.84,0,0,1-6.94,4.8,19.246,19.246,0,0,1-7.947,1.785,19.521,19.521,0,0,1-9.681-2.414,17.823,17.823,0,0,1-6.815-6.664,18.5,18.5,0,0,1-2.465-9.455,17.469,17.469,0,0,1,2.515-9.279,18.1,18.1,0,0,1,6.941-6.538A20.05,20.05,0,0,1,299.737,389.259Z" transform="translate(-273.398 -327.641)" fill="#feb041"/>
          <path id="rect1331" d="M383.641,383.641v48h48v-48Zm7.365,5.97h8.1l16.622,22.255V389.611h8.55v36.06H416.2l-16.6-22.2v22.2h-8.6Z" transform="translate(-327.641 -327.641)" fill="#e15835"/>
        </g>
      </g>
    </g>
  </g>
</svg>
